<svg id="Layer_1" data-name="Layer 1" xmlns="http://www.w3.org/2000/svg" viewBox="0 0 122.33 122.33"><defs><style>.cls-1{fill:#58595b;}.cls-2{fill:#fff;}</style></defs><title>Male</title><path class="cls-1" d="M255.76,384a61.17,61.17,0,1,1,61.17-61.17A61.17,61.17,0,0,1,255.76,384Z" transform="translate(-194.59 -261.62)"/><path class="cls-2" d="M273,354.06a3,3,0,0,0-1,.59,52.28,52.28,0,0,1-.53-11.87,51.11,51.11,0,0,0,3.27-4.68c0.59-1,2.11-8.64,2.6-11.47a1.71,1.71,0,0,0,1.7.2c0.74-.48,1.34-2.59,1.83-4a65.92,65.92,0,0,0,1.72-7.47c0.25-1.8.8-4.15,0.18-4.84a2.22,2.22,0,0,0-3.22-.62c0.37-3.32-.37-20.6-1-21.71a1.35,1.35,0,0,1-.42,1,46.16,46.16,0,0,0-1.59-4.89,3.31,3.31,0,0,1-.28,1.29,10.86,10.86,0,0,0-2.67-3.92c-1.59-1.2-5.63-4-6-4.73a3.68,3.68,0,0,0,.46,2.05,25.29,25.29,0,0,1-7.24-6.13c-0.17-.62-0.59.83-0.52,2-1.28-.38-4.42-3.87-4.42-3.87a3.25,3.25,0,0,0,.37,2.49,64.83,64.83,0,0,1-5.08-5,6.14,6.14,0,0,0-.28,2.25,26.56,26.56,0,0,0-2.59-2.8,36.19,36.19,0,0,1-3.74,9.32c-0.09-.6-0.67-1.59-0.48-2.21-0.88.65-2.84,5.26-3,5.72a13.83,13.83,0,0,1-.44-3c-1.06,1.89-2.46,4.37-3.11,5.86a7.42,7.42,0,0,1-.07-2.91,12.12,12.12,0,0,0-3.25,5.81,25.36,25.36,0,0,0-.51,5.1,10.14,10.14,0,0,1-.84-4,24.4,24.4,0,0,0-1.24,5.89,86.83,86.83,0,0,0,.49,16.39,2.23,2.23,0,0,0-3.22.62c-0.63.69-.07,3,0.18,4.84a65.86,65.86,0,0,0,1.73,7.47c0.49,1.41,1.09,3.52,1.83,4a1.71,1.71,0,0,0,1.7-.2c0.48,2.83,2.07,10.49,2.67,11.47a51.1,51.1,0,0,0,3.27,4.68c0.33,1.86-.34,9.54-1.52,11.87a3,3,0,0,0-1-.59s-19.39,10.35-22.78,13c0.12,0.45.29,1,.49,1.55a61.11,61.11,0,0,0,81,0c0.2-.57.37-1.1,0.49-1.55C293.36,364.42,273,354.06,273,354.06Z" transform="translate(-194.59 -261.62)"/></svg>